<svg id="Capa_1" enable-background="new 0 0 512 512" height="512" viewBox="0 0 512 512" width="512" xmlns="http://www.w3.org/2000/svg"><g><path d="m164.593 162.777-86.833 86.833c-5.858 5.858-5.858 15.355 0 21.213l78.4 78.4c5.857 5.858 15.355 5.859 21.213 0 5.858-5.858 5.858-15.355 0-21.213l-67.793-67.794 76.226-76.227c5.858-5.858 5.858-15.355 0-21.213s-15.356-5.858-21.213.001z"/><path d="m355.84 162.777c-5.857-5.858-15.355-5.858-21.213 0s-5.858 15.355 0 21.213l67.793 67.794-76.226 76.227c-5.858 5.858-5.858 15.355 0 21.213 5.857 5.858 15.355 5.859 21.213 0l86.833-86.833c5.858-5.858 5.858-15.355 0-21.213z"/><path d="m300.389 129.558c-7.814-2.76-16.38 1.338-19.139 9.149l-79.318 224.597c-2.758 7.812 1.337 16.38 9.149 19.139 7.809 2.758 16.38-1.336 19.139-9.149l79.318-224.597c2.758-7.812-1.338-16.381-9.149-19.139z"/><path d="m439.536 68.701h-367.072c-39.957 0-72.464 32.507-72.464 72.464v229.67c0 39.957 32.507 72.464 72.464 72.464h367.072c39.957 0 72.464-32.507 72.464-72.464v-229.67c0-39.957-32.507-72.464-72.464-72.464zm42.464 302.134c0 23.415-19.049 42.464-42.464 42.464h-367.072c-23.415 0-42.464-19.049-42.464-42.464v-229.67c0-23.415 19.049-42.464 42.464-42.464h367.072c23.415 0 42.464 19.049 42.464 42.464z"/></g></svg>