<svg id="Capa_1" enable-background="new 0 0 512 512" height="512" viewBox="0 0 512 512" width="512" xmlns="http://www.w3.org/2000/svg"><g><g><path d="m199.887 256h112.226v144.29h-112.226z" fill="#e2a975"/><path d="m272.032 504.5h-32.064l-16.033-112.226h64.13z" fill="#f4dbb3"/><path d="m151.79 328.145-51.24 18.633c-22.175 8.064-36.937 29.139-36.937 52.735v104.987h176.355v-80.161z" fill="#ff8086"/><path d="m199.887 299.052c16.968 8.282 35.96 13.06 56.113 13.06s39.145-4.778 56.113-13.06v-43.052h-112.226z" fill="#d19a6e"/><path d="m372.234 151.79h-12.024v-48.097h-208.42v48.097h-8.016c-11.068 0-24.048 8.972-24.048 20.04s8.972 20.04 20.04 20.04h12.429c4.106 53.795 48.957 96.194 103.805 96.194s99.699-42.398 103.805-96.194h12.429c11.068 0 20.04-8.973 20.04-20.04 0-11.068-8.972-20.04-20.04-20.04z" fill="#ecbd83"/><path d="m183.855 183.855v-80.161h-32.065v48.097h-12.024c-11.068 0-20.04 8.972-20.04 20.04s8.972 20.04 20.04 20.04h12.429c4.106 53.795 48.957 96.194 103.805 96.194 5.483 0 10.83-.534 16.083-1.351-49.947-7.708-88.228-50.755-88.228-102.859z" fill="#e2a975"/><path d="m151.79 87.661 32.085 60.949c53.967-10.727 88.156-44.917 88.156-44.917l8.016 32.064s40.081-8.016 64.129-32.064v32.064c0 8.854 7.178 16.032 16.032 16.032h16.032v-64.128z" fill="#6e4848"/><path d="m183.855 87.661h-32.065l-16.032 16.032v47.236c17.458 1.884 33.424.494 48.097-2.428z" fill="#643c3e"/><path d="m296.081 7.5h-80.161c-44.272 0-80.161 35.889-80.161 80.161v16.032h240.484v-16.032c-.001-44.272-35.89-80.161-80.162-80.161z" fill="#ff8086"/><path d="m239.968 378.248c0-7.257-3.338-14.106-8.969-18.682-19.245-15.639-30.759-32.573-35.879-41.379-2.005-3.448-6.199-4.895-9.902-3.413l-33.428 13.371s25.528 55.624 88.177 94.908v-44.805z" fill="#f5ebcd"/><path d="m264.016 7.5h-48.097c-44.272 0-80.161 35.889-80.161 80.161v16.032h48.097v-16.032c0-44.272 35.889-80.161 80.161-80.161z" fill="#e5646e"/><path d="m374.632 71.629h-38.47c-8.854 0-16.032 7.178-16.032 16.032v16.032h56.113v-16.032c-.001-5.491-.559-10.851-1.611-16.032z" fill="#e5646e"/><path d="m360.21 328.145 51.24 18.633c22.175 8.064 36.937 29.139 36.937 52.735v104.987h-176.355v-80.161z" fill="#ff8086"/><path d="m272.032 378.248c0-7.257 3.338-14.106 8.969-18.682 19.245-15.639 30.759-32.573 35.879-41.379 2.005-3.448 6.199-4.895 9.902-3.413l33.428 13.371s-25.528 55.624-88.177 94.908v-44.805z" fill="#f5ebcd"/></g><g><path d="m223.419 167.822v-8.016c0-4.142-3.358-7.5-7.5-7.5s-7.5 3.358-7.5 7.5v8.016c0 4.142 3.358 7.5 7.5 7.5s7.5-3.358 7.5-7.5z"/><path d="m296.081 175.322c4.142 0 7.5-3.358 7.5-7.5v-8.016c0-4.142-3.358-7.5-7.5-7.5s-7.5 3.358-7.5 7.5v8.016c0 4.142 3.357 7.5 7.5 7.5z"/><path d="m127.742 440.887c-4.142 0-7.5 3.358-7.5 7.5v56.113c0 4.142 3.358 7.5 7.5 7.5s7.5-3.358 7.5-7.5v-56.113c0-4.142-3.358-7.5-7.5-7.5z"/><path d="m414.014 339.729-51.128-18.592-33.318-13.327c-3.301-1.321-6.777-1.441-9.955-.552v-31.635c25.013-17.396 42.618-44.741 47.019-76.253h4.457c14.618 0 27.155-10.861 28.544-24.727.778-7.771-1.764-15.53-6.974-21.288-2.521-2.786-5.566-4.99-8.915-6.531v-59.163c.001-48.336-39.324-87.661-87.661-87.661h-80.162c-48.336 0-87.661 39.325-87.661 87.661v8.532h-56.631c-4.142 0-7.5 3.358-7.5 7.5s3.358 7.5 7.5 7.5h56.632v8.532c0 4.142 3.358 7.5 7.5 7.5s7.5-3.358 7.5-7.5v-8.532h105.306c-21.683 13.685-60.282 33.097-104.792 33.097h-2.862c-14.617 0-27.155 10.861-28.544 24.725-.779 7.771 1.762 15.53 6.972 21.289 5.213 5.762 12.659 9.067 20.426 9.067h5.598c4.399 31.522 22.003 58.87 47.023 76.264v31.625c-3.178-.889-6.654-.769-9.955.552l-33.318 13.327-51.128 18.592c-25.046 9.108-41.874 33.133-41.874 59.783v104.986c0 4.142 3.358 7.5 7.5 7.5s7.5-3.358 7.5-7.5v-104.987c0-20.366 12.86-38.726 32-45.687l45.02-16.371c8.484 15.592 34.439 57.265 84.336 89.703v77.342c0 4.142 3.358 7.5 7.5 7.5s7.5-3.358 7.5-7.5v-104.726h17.064v104.726c0 4.142 3.358 7.5 7.5 7.5s7.5-3.358 7.5-7.5v-77.346c21.489-13.972 40.9-31.21 57.737-51.301 2.661-3.175 2.244-7.905-.931-10.565-3.175-2.662-7.906-2.245-10.565.931-13.715 16.364-29.227 30.721-46.241 42.81v-30.779c0-4.972 2.259-9.66 6.199-12.861 20.42-16.593 32.343-34.333 37.633-43.43.136-.233.385-.318.633-.22l25.708 10.283c-1.281 2.273-2.903 5.028-4.877 8.158-2.209 3.504-1.16 8.135 2.344 10.345s8.135 1.159 10.345-2.344c2.706-4.291 4.802-7.932 6.334-10.731l45.038 16.377c19.14 6.96 32 25.32 32 45.687v104.986c0 4.142 3.358 7.5 7.5 7.5s7.5-3.358 7.5-7.5v-104.987c-.003-26.651-16.83-50.676-41.876-59.784zm-45.269-252.068v8.532h-41.116v-8.532c0-4.705 3.828-8.532 8.533-8.532h32.065c.329 2.801.518 5.644.518 8.532zm-53.546 23.532c-11.445 7.723-22.771 12.484-29.811 15.003l-3.751-15.003zm36.479 0h17.067v33.097h-8.535c-4.705 0-8.532-3.828-8.532-8.532zm-208.417-23.532c0-40.065 32.596-72.661 72.661-72.661h80.162c31.83 0 58.926 20.582 68.728 49.129h-28.65c-12.976 0-23.533 10.557-23.533 23.532v8.532h-169.368zm16.03 96.193c0-4.142-3.358-7.5-7.5-7.5s-7.5 3.358-7.5 7.5v.516h-4.524c-3.537 0-6.928-1.506-9.303-4.131-2.407-2.66-3.532-6.115-3.17-9.729.63-6.292 6.613-11.221 13.619-11.221h2.862c57.462 0 104.46-28.804 123.759-42.673l5.24 20.96c.852 3.408 3.91 5.683 7.27 5.683.602 0 1.214-.073 1.825-.226 1.305-.326 30.391-7.79 54.811-29.524v22.248c0 12.976 10.557 23.532 23.532 23.532h12.024c3.537 0 6.927 1.505 9.303 4.13 2.406 2.66 3.533 6.115 3.17 9.729-.63 6.292-6.612 11.221-13.618 11.221h-3.383v-.439c0-4.141-3.356-7.499-7.497-7.5-.001 0-.002 0-.003 0-4.14 0-7.497 3.354-7.5 7.495-.039 53.286-43.421 96.638-96.706 96.638-53.328.001-96.711-43.382-96.711-96.709zm3.024 148.159 25.688-10.275c.247-.098.497-.013.633.22 5.29 9.097 17.212 26.836 37.632 43.429 3.94 3.202 6.199 7.89 6.199 12.862v30.771c-39.742-28.297-61.941-62.534-70.152-77.007zm113.956 21.733c-7.46 6.063-11.739 14.993-11.739 24.502v6.526h-17.064v-6.526c0-9.509-4.279-18.44-11.739-24.503-13.208-10.733-22.54-22.13-28.341-30.366v-38.961c14.705 7.137 31.199 11.146 48.613 11.146 17.412 0 33.906-4.012 48.613-11.153v38.968c-5.802 8.236-15.134 19.633-28.343 30.367z"/><path d="m384.258 440.887c-4.142 0-7.5 3.358-7.5 7.5v56.113c0 4.142 3.358 7.5 7.5 7.5s7.5-3.358 7.5-7.5v-56.113c0-4.142-3.358-7.5-7.5-7.5z"/><path d="m290.318 222.326c3.539-2.153 4.661-6.767 2.508-10.306-2.152-3.538-6.766-4.661-10.306-2.508-7.336 4.464-16.755 6.923-26.521 6.923-9.765 0-19.184-2.459-26.52-6.923-3.538-2.153-8.152-1.03-10.306 2.508-2.153 3.539-1.031 8.152 2.508 10.306 9.793 5.96 21.66 9.11 34.318 9.11s24.526-3.15 34.319-9.11z"/></g></g></svg>